<svg width="36" height="19" viewBox="0 0 36 19" fill="none" xmlns="http://www.w3.org/2000/svg">
<path d="M17.916 0L17.076 5.6736L16.6093 5.70377C16.4195 4.08921 15.9528 2.95148 15.2061 2.28453C14.4595 1.61758 13.4577 1.32485 12.1945 1.40935C10.9003 1.49385 9.634 2.01292 8.40508 2.96958C7.17616 3.92927 6.16502 5.34163 5.381 7.21875C4.59698 9.09284 4.27653 11.0333 4.41653 13.0342C4.53787 14.7544 5.05433 16.037 5.9628 16.885C6.87437 17.736 7.89796 18.1223 9.03043 18.0499C9.51267 18.0197 10.0851 17.8567 10.7509 17.561L11.8025 12.8501C11.9798 12.0624 12.0607 11.5494 12.0421 11.3049C12.0203 10.9881 11.8585 10.7285 11.5629 10.5293C11.2643 10.3272 10.7696 10.2487 10.082 10.294L10.1785 9.78393L18 9.2709L17.916 9.78092C17.4493 9.83826 17.0946 9.94992 16.8395 10.1129C16.5844 10.2758 16.3915 10.5052 16.2608 10.801C16.18 10.979 16.0742 11.4226 15.9373 12.1349L14.755 17.4373C12.8821 18.3185 10.8847 18.8315 8.75353 18.9703C7.11394 19.079 5.69834 18.8889 4.50676 18.406C3.31517 17.9231 2.30092 17.1023 1.45779 15.9374C0.614654 14.7785 0.13553 13.4235 0.0266384 11.8753C-0.209812 8.57377 1.128 5.75508 4.03386 3.41623C6.31436 1.60249 8.97132 0.591504 12.011 0.392324C12.543 0.35611 13.0314 0.353091 13.4825 0.374216C13.8154 0.395342 14.4128 0.479842 15.259 0.627717C15.8035 0.724289 16.1768 0.766539 16.3728 0.754468C16.768 0.727307 17.1289 0.488896 17.4462 0.0362153L17.9129 0.00603603L17.916 0Z" fill="#7DBF19"/>
<path d="M36 0.48287L23.3524 17.6767L24.4235 17.6033C26.5719 17.4597 28.269 17.0318 29.5274 16.3259C30.7826 15.6199 31.9089 14.5105 32.9125 13.0069L33.468 12.9702L31.9304 18.0648L18.0338 19L18 18.5202L30.6107 1.38137L28.9289 1.49445C26.7713 1.63809 25.1877 2.01094 24.1841 2.60383C23.1806 3.20283 22.3488 4.1594 21.6921 5.46743L21.1642 5.5041L22.3918 0.913785L35.9632 0L35.9969 0.479813L36 0.48287Z" fill="#7DBF19"/>
</svg>
