<svg xmlns="http://www.w3.org/2000/svg"><style>:root svg:not(:target){display:none}</style><svg viewBox="0 0 24 24" fill="none" id="icon-close-menu"><path d="M18 6L6 18M6 6l12 12" stroke="#000" stroke-width="2" stroke-linecap="round" stroke-linejoin="round"/></svg><svg viewBox="0 0 24 24" fill="none" id="icon-menu"><path d="M3 12h18M3 6h18M3 18h18" stroke="#000" stroke-width="2" stroke-linecap="round" stroke-linejoin="round"/></svg><svg viewBox="0 0 24 24" fill="none" stroke="none" id="phone"><path d="M8.38 8.853a14.603 14.603 0 002.847 4.01 14.603 14.603 0 004.01 2.847c.124.06.187.09.265.112.28.082.625.023.862-.147.067-.048.124-.105.239-.219.35-.35.524-.524.7-.639a2 2 0 012.18 0c.176.115.35.29.7.64l.195.194c.532.531.797.797.942 1.082a2 2 0 010 1.806c-.145.285-.41.551-.942 1.082l-.157.158c-.53.53-.795.794-1.155.997-.4.224-1.02.386-1.478.384-.413-.001-.695-.081-1.26-.241a19.038 19.038 0 01-8.283-4.874A19.039 19.039 0 013.17 7.761c-.16-.564-.24-.846-.241-1.26a3.377 3.377 0 01.384-1.477c.202-.36.467-.625.997-1.155l.157-.158c.532-.53.798-.797 1.083-.941a2 2 0 011.805 0c.286.144.551.41 1.083.942l.195.194c.35.35.524.525.638.7a2 2 0 010 2.18c-.114.177-.289.352-.638.701a2.037 2.037 0 00-.22.238 1.05 1.05 0 00-.147.862c.023.08.053.142.113.266z" stroke="#8cc53e" stroke-width="2" stroke-linecap="round" stroke-linejoin="round"/></svg><svg viewBox="0 0 18 18" fill="none" id="whatsapp"><g clip-path="url(#clip0_1559_1121)"><path fill-rule="evenodd" clip-rule="evenodd" d="M14.97 3.006A8.308 8.308 0 009.053.554C4.445.554.694 4.304.692 8.915c0 1.474.384 2.913 1.116 4.18L.622 17.43l4.433-1.163a8.353 8.353 0 003.996 1.018h.003c4.609 0 8.36-3.752 8.362-8.362a8.31 8.31 0 00-2.447-5.916zM9.053 15.872H9.05a6.942 6.942 0 01-3.537-.97l-.254-.15-2.63.69.702-2.565-.166-.263a6.933 6.933 0 01-1.062-3.698 6.96 6.96 0 016.953-6.95c1.856 0 3.601.724 4.913 2.038a6.909 6.909 0 012.034 4.917c-.001 3.833-3.12 6.95-6.95 6.95zm3.812-5.206c-.208-.104-1.236-.61-1.427-.68-.192-.07-.331-.104-.47.105-.14.21-.54.68-.662.82-.122.139-.244.156-.453.052-.209-.105-.882-.326-1.68-1.038-.621-.554-1.04-1.238-1.162-1.447-.122-.21-.001-.311.091-.426.227-.281.453-.576.523-.715.07-.14.035-.262-.018-.366-.052-.105-.47-1.133-.644-1.552-.17-.407-.342-.352-.47-.358a8.36 8.36 0 00-.4-.007.767.767 0 00-.558.261c-.191.21-.73.715-.73 1.743s.748 2.022.852 2.161c.105.14 1.474 2.25 3.57 3.155.498.216.887.344 1.19.44.501.16.957.137 1.317.083.401-.06 1.236-.505 1.41-.993.174-.488.174-.907.122-.994-.052-.087-.192-.14-.4-.244z" fill="#fff"/></g><defs><clipPath id="clip0_1559_1121"><path fill="#fff" d="M0 0h18v18H0z"/></clipPath></defs></svg><svg viewBox="0 0 24 24" fill="none" id="calendar"><path d="M21 10H3m18 2.5V8.8c0-1.68 0-2.52-.327-3.162a3 3 0 00-1.311-1.311C18.72 4 17.88 4 16.2 4H7.8c-1.68 0-2.52 0-3.162.327a3 3 0 00-1.311 1.311C3 6.28 3 7.12 3 8.8v8.4c0 1.68 0 2.52.327 3.162a3 3 0 001.311 1.311C5.28 22 6.12 22 7.8 22H12m4-20v4M8 2v4m6.5 13l2 2 4.5-4.5" stroke="#8CC53E" stroke-width="2" stroke-linecap="round" stroke-linejoin="round"/></svg><svg viewBox="0 0 24 24" fill="none" id="boolon"><path d="M12 13a3 3 0 100-6 3 3 0 000 6z" stroke="#8CC53E" stroke-width="2" stroke-linecap="round" stroke-linejoin="round"/><path d="M12 22c4-4 8-7.582 8-12a8 8 0 10-16 0c0 4.418 4 8 8 12z" stroke="#8CC53E" stroke-width="2" stroke-linecap="round" stroke-linejoin="round"/></svg><svg viewBox="0 0 24 24" fill="none" id="arrow"><path d="M9 18l6-6-6-6" stroke="#fff" stroke-width="2" stroke-linecap="round" stroke-linejoin="round"/></svg><svg viewBox="0 0 20 21" fill="none" id="people"><path d="M13.333 3.39a3.75 3.75 0 010 6.72M15 14.472c1.26.57 2.394 1.499 3.333 2.695m-16.666 0c1.622-2.065 3.824-3.334 6.25-3.334 2.425 0 4.628 1.27 6.25 3.334m-2.5-10.417a3.75 3.75 0 11-7.5 0 3.75 3.75 0 017.5 0z" stroke="#8CC53E" stroke-width="2" stroke-linecap="round" stroke-linejoin="round"/></svg><svg viewBox="0 0 20 21" fill="none" id="bathroom"><path fill-rule="evenodd" clip-rule="evenodd" d="M5 8.033c-.51.103-.91.434-1.174.81-.32.459-.493 1.047-.493 1.657v1.667c0 .46.373.833.834.833h.929c.239 1.012.905 1.851 1.8 2.435v1.215a1.44 1.44 0 01-1.439 1.438.833.833 0 000 1.667h9.085a.833.833 0 000-1.667 1.438 1.438 0 01-1.438-1.438v-1.215c.895-.583 1.561-1.423 1.8-2.435h.93c.46 0 .833-.373.833-.833V10.5c0-.61-.172-1.198-.493-1.656-.263-.377-.665-.708-1.174-.81V3.351c0-1.01-.742-2.019-1.875-2.019h-6.25C5.74 1.333 5 2.342 5 3.353v4.68zm6.438 8.122a5.902 5.902 0 01-2.876 0v.495c0 .519-.127 1.008-.352 1.438h3.58a3.092 3.092 0 01-.352-1.438v-.495zM15 11.333V10.5c0-.31-.09-.555-.191-.7a.427.427 0 00-.12-.122.101.101 0 00-.021-.01l-.002-.001H5.332a.101.101 0 00-.022.01.427.427 0 00-.119.122c-.102.146-.191.39-.191.701v.833h10zm-5 3.334c-1.559 0-2.694-.761-3.133-1.667h6.266c-.44.906-1.574 1.667-3.133 1.667zM6.667 8h6.666V3.352c0-.13-.046-.23-.098-.288-.05-.057-.09-.064-.11-.064h-6.25c-.02 0-.06.007-.11.064a.438.438 0 00-.098.288V8z" fill="#8CC53E"/></svg><svg viewBox="0 0 20 21" fill="none" id="kitchen"><g clip-path="url(#clip0_1559_2350)"><mask id="mask0_1559_2350" style="mask-type:luminance" maskUnits="userSpaceOnUse" x="0" y="0" width="20" height="21"><path d="M0 .5h20v20H0V.5z" fill="#fff"/></mask><g mask="url(#mask0_1559_2350)" stroke="#8CC53E" stroke-width="2" stroke-miterlimit="10" stroke-linecap="round" stroke-linejoin="round"><path d="M8.27 10.413l-7.088 6.419a1.761 1.761 0 102.486 2.486l6.33-6.994m4.065-4.491l-2.335 2.58m.936-3.979L9.999 8.847m6.756-1.57a2.5 2.5 0 11-3.536-3.535c.976-.976 3.834-2.251 4.81-1.275.976.977-.298 3.834-1.274 4.81z"/><path d="M5.963 7.866l10.369 11.452a1.761 1.761 0 102.486-2.486L7.366 6.462"/><path d="M6.11 3.075l.774.773c.915.915.915 2.4 0 3.315l-.221.22c-.916.916-2.4.916-3.315 0l-.773-.773L6.11 3.075zm0 0L4.122 1.086M2.575 6.61L.585 4.622m3.758.221l-1.99-1.99"/></g></g><defs><clipPath id="clip0_1559_2350"><path fill="#fff" transform="translate(0 .5)" d="M0 0h20v20H0z"/></clipPath></defs></svg><svg viewBox="0 0 20 21" fill="none" id="tv"><path d="M14.167 18L10 14.667 5.833 18m-.166-3.333h8.666c1.4 0 2.1 0 2.635-.273a2.5 2.5 0 001.093-1.092c.272-.535.272-1.235.272-2.635V7c0-1.4 0-2.1-.272-2.635a2.5 2.5 0 00-1.093-1.093C16.434 3 15.733 3 14.333 3H5.667c-1.4 0-2.1 0-2.635.272a2.5 2.5 0 00-1.093 1.093C1.667 4.9 1.667 5.6 1.667 7v3.667c0 1.4 0 2.1.272 2.635a2.5 2.5 0 001.093 1.092c.535.273 1.235.273 2.635.273z" stroke="#8CC53E" stroke-width="2" stroke-linecap="round" stroke-linejoin="round"/></svg><svg viewBox="0 0 20 21" fill="none" id="fridge"><path d="M15.052 7.583L4.948 13.417m10.104-5.834l.915-3.415m-.915 3.415l3.415.915M4.948 13.417l-3.415-.915m3.415.915l-.915 3.415m11.019-3.416L4.948 7.583m10.104 5.833l3.415-.915m-3.415.915l.915 3.416M4.948 7.583l-.915-3.415m.915 3.415l-3.415.915M10 4.667v11.666m0-11.666l-2.5-2.5m2.5 2.5l2.5-2.5M10 16.333l-2.5 2.5m2.5-2.5l2.5 2.5" stroke="#8CC53E" stroke-width="2" stroke-linecap="round" stroke-linejoin="round"/></svg><svg viewBox="0 0 20 21" fill="none" id="wifi"><g clip-path="url(#clip0_3519_26)"><path d="M10 16.75h.008m8.997-9A13.285 13.285 0 0010 4.25a13.285 13.285 0 00-9.006 3.5m2.95 2.953A9.132 9.132 0 0110 8.417c2.322 0 4.441.863 6.057 2.286m-2.975 2.943A4.979 4.979 0 0010 12.583c-1.18 0-2.265.41-3.12 1.093" stroke="#8CC53E" stroke-width="2" stroke-linecap="round" stroke-linejoin="round"/></g><defs><clipPath id="clip0_3519_26"><path fill="#fff" transform="translate(0 .5)" d="M0 0h20v20H0z"/></clipPath></defs></svg></svg>