<svg width="24" height="24" viewBox="0 0 24 24" fill="none" xmlns="http://www.w3.org/2000/svg">
<path d="M8.38069 8.85289C9.09617 10.3409 10.0588 11.6968 11.2277 12.8629C12.3938 14.0318 13.7497 14.9944 15.2377 15.7099C15.3617 15.7699 15.4247 15.7999 15.5027 15.8219C15.7827 15.9039 16.1277 15.8449 16.3647 15.6749C16.4317 15.6269 16.4887 15.5699 16.6037 15.4559C16.9537 15.1059 17.1277 14.9319 17.3037 14.8169C17.6281 14.606 18.0067 14.4938 18.3937 14.4938C18.7806 14.4938 19.1593 14.606 19.4837 14.8169C19.6597 14.9319 19.8337 15.1069 20.1837 15.4569L20.3787 15.6509C20.9107 16.1819 21.1757 16.4479 21.3207 16.7329C21.4623 17.0128 21.5361 17.3222 21.5361 17.6359C21.5361 17.9496 21.4623 18.259 21.3207 18.5389C21.1757 18.8239 20.9107 19.0899 20.3787 19.6209L20.2217 19.7789C19.6917 20.3089 19.4267 20.5729 19.0667 20.7759C18.6667 20.9999 18.0467 21.1619 17.5887 21.1599C17.1757 21.1589 16.8937 21.0789 16.3287 20.9189C13.1963 20.0293 10.3444 18.3512 8.04569 16.0449C5.73892 13.746 4.06043 10.8937 3.17069 7.76089C3.01069 7.19689 2.93069 6.91489 2.92969 6.50089C2.94331 5.98571 3.07466 5.48047 3.31369 5.02389C3.51569 4.66389 3.78069 4.39889 4.31069 3.86889L4.46769 3.71089C4.99969 3.18089 5.26569 2.91389 5.55069 2.76989C5.83049 2.62841 6.13964 2.55469 6.45319 2.55469C6.76673 2.55469 7.07588 2.62841 7.35569 2.76989C7.64169 2.91389 7.90669 3.17989 8.43869 3.71189L8.63369 3.90589C8.98369 4.25589 9.15769 4.43089 9.27169 4.60589C9.48257 4.93032 9.59482 5.30895 9.59482 5.69589C9.59482 6.08283 9.48257 6.46147 9.27169 6.78589C9.15769 6.96289 8.98269 7.13789 8.63369 7.48689C8.55415 7.56026 8.48058 7.63984 8.41369 7.72489C8.32868 7.84957 8.27155 7.99111 8.24618 8.13986C8.22082 8.28861 8.22781 8.44109 8.26669 8.58689C8.28969 8.66689 8.31969 8.72889 8.37969 8.85289H8.38069Z" stroke="#8CC53E" stroke-width="2" stroke-linecap="round" stroke-linejoin="round"/>
</svg>
