<svg width="18" height="18" viewBox="0 0 18 18" fill="none" xmlns="http://www.w3.org/2000/svg">
<g clip-path="url(#clip0_1137_78)">
<mask id="mask0_1137_78" style="mask-type:luminance" maskUnits="userSpaceOnUse" x="0" y="0" width="18" height="18">
<path d="M0 0H18V18H0V0Z" fill="white"/>
</mask>
<g mask="url(#mask0_1137_78)">
<path fill-rule="evenodd" clip-rule="evenodd" d="M14.9691 3.00623C14.1941 2.22634 13.2721 1.60802 12.2564 1.18711C11.2407 0.766207 10.1515 0.551092 9.05209 0.554233C4.44409 0.554233 0.693094 4.30423 0.691094 8.91523C0.691094 10.3892 1.07509 11.8282 1.80709 13.0952L0.621094 17.4302L5.05409 16.2672C6.28009 16.9352 7.65395 17.2852 9.05009 17.2852H9.05309C13.6621 17.2852 17.4131 13.5332 17.4151 8.92323C17.4186 7.82432 17.2042 6.73561 16.7842 5.72013C16.3641 4.70464 15.7469 3.78256 14.9681 3.00723L14.9691 3.00623ZM9.05209 15.8722H9.04909C7.80446 15.8718 6.58282 15.5368 5.51209 14.9022L5.25809 14.7522L2.62809 15.4422L3.33009 12.8772L3.16409 12.6142C2.4683 11.5064 2.10012 10.2244 2.10209 8.91623C2.10474 7.07327 2.83823 5.3066 4.14169 4.0037C5.44514 2.70081 7.21213 1.96808 9.05509 1.96623C10.9111 1.96623 12.6561 2.69023 13.9681 4.00423C14.6153 4.64869 15.1283 5.41508 15.4774 6.25906C15.8266 7.10305 16.0049 8.00789 16.0021 8.92123C16.0011 12.7542 12.8821 15.8722 9.05209 15.8722ZM12.8641 10.6662C12.6561 10.5622 11.6281 10.0562 11.4371 9.98623C11.2451 9.91623 11.1061 9.88223 10.9671 10.0912C10.8271 10.3012 10.4271 10.7712 10.3051 10.9112C10.1831 11.0502 10.0611 11.0672 9.85209 10.9632C9.64309 10.8582 8.97009 10.6372 8.17209 9.92523C7.55109 9.37123 7.13209 8.68723 7.01009 8.47823C6.88809 8.26823 7.00909 8.16723 7.10109 8.05223C7.32809 7.77123 7.55409 7.47623 7.62409 7.33723C7.69409 7.19723 7.65909 7.07523 7.60609 6.97123C7.55409 6.86623 7.13609 5.83823 6.96209 5.41923C6.79209 5.01223 6.62009 5.06723 6.49209 5.06123C6.35884 5.05571 6.22546 5.05338 6.09209 5.05423C5.98609 5.05681 5.88178 5.08133 5.78574 5.12625C5.6897 5.17117 5.60401 5.23552 5.53409 5.31523C5.34309 5.52523 4.80409 6.03023 4.80409 7.05823C4.80409 8.08623 5.55209 9.08023 5.65609 9.21923C5.76109 9.35923 7.13009 11.4692 9.22609 12.3742C9.72409 12.5902 10.1131 12.7182 10.4161 12.8142C10.9171 12.9742 11.3731 12.9512 11.7331 12.8972C12.1341 12.8372 12.9691 12.3922 13.1431 11.9042C13.3171 11.4162 13.3171 10.9972 13.2651 10.9102C13.2131 10.8232 13.0731 10.7702 12.8651 10.6662H12.8641Z" fill="white"/>
</g>
</g>
<defs>
<clipPath id="clip0_1137_78">
<rect width="18" height="18" fill="white"/>
</clipPath>
</defs>
</svg>
